<svg viewBox="0 0 251.55 56.07" height="19.78mm" width="88.74mm" xmlns="http://www.w3.org/2000/svg" data-name="Ebene 2" id="Ebene_2">
  <defs>
    <style>
      .cls-1 {
        fill: #1d1d1b;
      }

      .cls-1, .cls-2 {
        stroke-width: 0px;
      }

      .cls-2 {
        fill: #e4b226;
      }
    </style>
  </defs>
  <g id="Colosseum">
    <g>
      <g>
        <path d="M21.94,1.05v6.45h-3.03c-.36-1.68-.92-2.91-1.69-3.7-.77-.79-1.78-1.19-3.03-1.19-2.34,0-4.12,1.12-5.32,3.37s-1.8,5.58-1.8,10c0,4.11.55,7.22,1.65,9.33,1.1,2.11,2.71,3.17,4.83,3.17,1.08,0,1.96-.18,2.65-.55.68-.36,1.23-.91,1.64-1.64.41-.73.76-1.75,1.06-3.07h3.05v6.74c-1.63.39-3.12.67-4.47.85-1.35.18-2.75.27-4.2.27-3.09,0-5.6-.56-7.55-1.67-1.95-1.11-3.39-2.79-4.32-5.04-.93-2.25-1.39-5.09-1.39-8.53,0-3.22.55-6.02,1.64-8.4S4.33,3.23,6.45,1.94c2.12-1.29,4.66-1.94,7.61-1.94,1.5,0,2.85.08,4.07.24,1.22.16,2.48.43,3.8.8Z" class="cls-2"></path>
        <path d="M38.67,31.08c-4.36,0-7.63-1.28-9.82-3.83-2.19-2.55-3.28-6.37-3.28-11.46,0-3.34.53-6.19,1.59-8.55,1.06-2.37,2.62-4.16,4.68-5.39,2.06-1.23,4.52-1.85,7.36-1.85,4.43,0,7.76,1.27,9.99,3.82,2.22,2.54,3.34,6.32,3.34,11.33,0,2.8-.33,5.21-.99,7.22-.66,2.01-1.6,3.66-2.81,4.95-1.22,1.29-2.67,2.24-4.37,2.85-1.7.61-3.59.91-5.68.91ZM32.64,15.19c0,4.48.54,7.81,1.61,10,1.08,2.19,2.72,3.28,4.93,3.28,1.14,0,2.11-.31,2.91-.92.8-.62,1.45-1.48,1.95-2.58.5-1.1.85-2.41,1.07-3.93.21-1.51.32-3.17.32-4.98,0-2.95-.23-5.42-.7-7.42-.47-1.99-1.17-3.5-2.11-4.52-.94-1.02-2.15-1.52-3.62-1.52-2.15,0-3.75,1.03-4.79,3.08-1.05,2.05-1.57,5.22-1.57,9.51Z" class="cls-2"></path>
        <path d="M68.74.36v1.47c-.53.15-.96.31-1.27.48-.31.17-.55.4-.72.7-.17.3-.28.68-.33,1.15-.05.47-.08,1.06-.08,1.77v22.16h4.32c.86,0,1.55-.13,2.07-.4.52-.27.97-.68,1.35-1.23s.7-1.28.98-2.18c.27-.9.49-1.74.66-2.53h3.05l-.49,8.99h-21.2v-1.47c.55-.15.98-.31,1.3-.49.32-.18.56-.42.71-.72.16-.3.26-.69.3-1.16s.07-1.06.07-1.77V5.96c0-.7-.02-1.28-.06-1.76-.04-.47-.13-.86-.29-1.16-.16-.3-.39-.54-.71-.72-.32-.19-.76-.35-1.32-.5V.36h11.68Z" class="cls-2"></path>
        <path d="M94.82,31.08c-4.36,0-7.63-1.28-9.82-3.83-2.19-2.55-3.28-6.37-3.28-11.46,0-3.34.53-6.19,1.59-8.55,1.06-2.37,2.62-4.16,4.68-5.39,2.06-1.23,4.52-1.85,7.36-1.85,4.43,0,7.76,1.27,9.99,3.82,2.22,2.54,3.34,6.32,3.34,11.33,0,2.8-.33,5.21-.99,7.22-.66,2.01-1.6,3.66-2.81,4.95-1.22,1.29-2.67,2.24-4.37,2.85-1.7.61-3.59.91-5.68.91ZM88.79,15.19c0,4.48.54,7.81,1.61,10,1.08,2.19,2.72,3.28,4.93,3.28,1.14,0,2.11-.31,2.91-.92.8-.62,1.45-1.48,1.95-2.58.5-1.1.85-2.41,1.07-3.93.21-1.51.32-3.17.32-4.98,0-2.95-.23-5.42-.7-7.42-.47-1.99-1.17-3.5-2.11-4.52-.94-1.02-2.15-1.52-3.62-1.52-2.15,0-3.75,1.03-4.79,3.08-1.05,2.05-1.57,5.22-1.57,9.51Z" class="cls-2"></path>
        <path d="M116,23.23c.37,1.77.99,3.08,1.86,3.95s2.14,1.3,3.82,1.3c.87,0,1.66-.15,2.36-.44.7-.3,1.26-.77,1.68-1.43.42-.66.63-1.49.63-2.48,0-.92-.17-1.72-.51-2.39-.34-.67-.89-1.32-1.65-1.92-.76-.61-1.81-1.25-3.16-1.94-1.16-.58-2.2-1.18-3.14-1.8s-1.73-1.31-2.39-2.06c-.66-.75-1.17-1.57-1.54-2.46-.36-.89-.55-1.89-.55-3,0-1.82.45-3.37,1.36-4.65.9-1.28,2.21-2.24,3.93-2.9,1.71-.66,3.7-.99,5.95-.99,1.32,0,2.58.07,3.78.21,1.2.14,2.57.39,4.12.75v6.45h-3.05c-.28-1.17-.64-2.1-1.08-2.79-.44-.69-.98-1.2-1.63-1.52-.65-.33-1.48-.49-2.47-.49-.85,0-1.6.15-2.27.44-.67.3-1.19.74-1.58,1.32-.39.59-.58,1.29-.58,2.12s.17,1.61.5,2.24c.33.63.89,1.25,1.68,1.85.79.6,1.93,1.29,3.43,2.06,1.82.95,3.26,1.88,4.3,2.79s1.82,1.91,2.31,2.98c.5,1.08.75,2.32.75,3.75,0,1.82-.42,3.41-1.27,4.75-.85,1.34-2.08,2.37-3.69,3.09-1.62.72-3.49,1.08-5.61,1.08-1.51,0-3.09-.09-4.73-.26-1.64-.17-3.18-.42-4.62-.75v-6.85h3.05Z" class="cls-2"></path>
        <path d="M139.43,23.23c.37,1.77.99,3.08,1.86,3.95s2.14,1.3,3.82,1.3c.87,0,1.66-.15,2.36-.44.7-.3,1.26-.77,1.68-1.43.42-.66.63-1.49.63-2.48,0-.92-.17-1.72-.51-2.39-.34-.67-.89-1.32-1.65-1.92-.76-.61-1.81-1.25-3.16-1.94-1.16-.58-2.2-1.18-3.14-1.8s-1.73-1.31-2.39-2.06c-.66-.75-1.17-1.57-1.54-2.46-.36-.89-.55-1.89-.55-3,0-1.82.45-3.37,1.36-4.65.9-1.28,2.21-2.24,3.93-2.9,1.71-.66,3.7-.99,5.95-.99,1.32,0,2.58.07,3.78.21,1.2.14,2.57.39,4.12.75v6.45h-3.05c-.28-1.17-.64-2.1-1.08-2.79-.44-.69-.98-1.2-1.64-1.52-.65-.33-1.48-.49-2.47-.49-.85,0-1.6.15-2.27.44-.67.3-1.19.74-1.58,1.32-.39.59-.58,1.29-.58,2.12s.17,1.61.5,2.24c.33.63.89,1.25,1.68,1.85.79.6,1.93,1.29,3.43,2.06,1.82.95,3.26,1.88,4.3,2.79s1.82,1.91,2.31,2.98c.5,1.08.75,2.32.75,3.75,0,1.82-.42,3.41-1.27,4.75-.85,1.34-2.08,2.37-3.69,3.09-1.62.72-3.49,1.08-5.61,1.08-1.51,0-3.09-.09-4.73-.26-1.64-.17-3.18-.42-4.62-.75v-6.85h3.05Z" class="cls-2"></path>
        <path d="M182.14.36v7.07h-3.05c-.49-1.41-.9-2.36-1.25-2.86-.34-.5-.75-.89-1.22-1.18-.47-.29-1.28-.43-2.43-.43h-4.85v10.68h2.94c.65,0,1.16-.09,1.54-.28s.68-.49.92-.92c.25-.43.48-1.1.7-2h2.51v9.03h-2.51c-.21-.86-.44-1.52-.69-1.97-.25-.45-.55-.77-.9-.97-.35-.19-.87-.29-1.57-.29h-2.94v11.88h4.83c.52,0,.96-.03,1.31-.1s.67-.18.96-.34c.28-.16.55-.39.81-.67.26-.28.49-.59.69-.91.2-.33.41-.76.63-1.29s.47-1.27.73-2.2h3.05l-.42,8.12h-21.87v-1.47c.55-.15.98-.31,1.3-.48.32-.17.56-.41.71-.71.16-.3.26-.69.3-1.16s.07-1.06.07-1.77V5.96c0-.7-.02-1.28-.06-1.76-.04-.47-.13-.86-.29-1.16-.16-.3-.39-.54-.71-.72-.32-.19-.76-.35-1.32-.5V.36h22.07Z" class="cls-2"></path>
        <path d="M206.03,5.94c0-1.11-.05-1.89-.14-2.32-.1-.44-.29-.79-.57-1.06-.28-.27-.83-.51-1.65-.73V.36h9.79v1.47c-.53.15-.96.31-1.27.48-.31.17-.55.41-.71.71-.16.3-.27.69-.31,1.16s-.07,1.06-.07,1.77v13.9c0,1.84-.15,3.38-.44,4.62-.3,1.24-.76,2.28-1.38,3.13s-1.4,1.53-2.32,2.05c-.93.52-1.97.89-3.13,1.11s-2.45.33-3.89.33c-2.11,0-3.89-.22-5.34-.66-1.45-.44-2.64-1.1-3.55-1.98-.91-.88-1.59-1.95-2.02-3.21-.44-1.26-.66-2.88-.66-4.87V5.96c0-.7-.02-1.28-.06-1.76-.04-.47-.13-.86-.29-1.16-.16-.3-.39-.54-.71-.72-.32-.19-.76-.35-1.32-.5V.36h11.68v1.47c-.61.16-1.06.34-1.35.52-.29.19-.51.41-.66.68-.15.27-.25.62-.31,1.05-.06.43-.09,1.06-.09,1.89v14.68c0,1.17.07,2.24.22,3.2.15.96.42,1.79.81,2.48.39.69.94,1.22,1.64,1.59.7.37,1.59.56,2.69.56,1.51,0,2.64-.3,3.38-.91.74-.61,1.26-1.46,1.57-2.55.3-1.09.46-2.72.46-4.88V5.94Z" class="cls-2"></path>
        <path d="M251.55,1.82c-.79.22-1.32.46-1.6.72-.28.26-.48.61-.59,1.05-.11.44-.17,1.21-.17,2.32v19.24c0,.9.04,1.62.13,2.15.09.53.27.93.55,1.2.27.27.83.52,1.68.75v1.47h-11.41v-1.47c.65-.18,1.1-.33,1.36-.47.25-.13.45-.31.59-.52.14-.21.24-.54.31-.98.07-.44.1-1.16.1-2.17v-10.9c0-1.2.02-2.62.07-4.25.04-1.63.09-2.79.13-3.47h-.47c-.18.59-.37,1.18-.57,1.75-.2.57-.57,1.59-1.12,3.06l-5.96,16.06h-3.92l-6.27-18.04c-.37-1.02-.7-2.04-.98-3.05h-.4c.15,2.45.22,5.34.22,8.68v10.23c0,1.1.05,1.86.16,2.29.1.43.31.79.62,1.07.31.28.85.52,1.62.71v1.47h-8.41v-1.47c.55-.15.98-.31,1.3-.49.32-.18.56-.42.72-.71.16-.3.26-.67.3-1.13.04-.46.06-1.05.06-1.76V5.92c0-1.13-.05-1.9-.14-2.31-.1-.42-.29-.76-.57-1.02-.28-.27-.84-.52-1.67-.76V.36h11.06l6.16,18.26L241.12.36h10.43v1.47Z" class="cls-2"></path>
      </g>
      <g>
        <path d="M60.42,53.47c-.58.64-1.49.95-2.73.95h-3.52v-13.72h3.5c1.22,0,2.1.29,2.65.89.55.59.83,1.49.83,2.69,0,1.56-.6,2.57-1.81,3.02,1.3.36,1.95,1.47,1.95,3.34,0,1.25-.29,2.19-.86,2.82ZM55.62,46.67h1.93c1.43,0,2.15-.77,2.15-2.31,0-.85-.17-1.45-.51-1.82-.34-.36-.88-.55-1.62-.55h-1.95v4.67ZM59.83,50.55c0-1.72-.76-2.59-2.27-2.59h-1.95v5.17h1.95c.8,0,1.37-.21,1.73-.64.36-.42.54-1.07.54-1.95Z" class="cls-1"></path>
        <path d="M67.46,50.92l-.87,3.5h-1.51l3.74-13.72h1.33l3.74,13.72h-1.53l-.87-3.5h-4.02ZM69.47,42.89l-1.69,6.78h3.38l-1.69-6.78Z" class="cls-1"></path>
        <path d="M79.29,48.42v6h-1.45v-13.72h3.62c1.21,0,2.08.32,2.63.95s.83,1.61.83,2.92c0,1.96-.68,3.17-2.03,3.62l2.43,6.22h-1.55l-2.27-6h-2.21ZM81.44,47.15c.7,0,1.22-.22,1.54-.65.32-.43.49-1.07.49-1.92s-.16-1.51-.47-1.94-.83-.65-1.56-.65h-2.15v5.15h2.15Z" class="cls-1"></path>
        <path d="M97.86,39.71v16.36h-1.31v-16.36h1.31Z" class="cls-1"></path>
        <path d="M111.14,40.7v12.43h4.65v1.29h-6.1v-13.72h1.45Z" class="cls-1"></path>
        <path d="M121.42,50.92l-.87,3.5h-1.51l3.74-13.72h1.33l3.74,13.72h-1.53l-.87-3.5h-4.02ZM123.43,42.89l-1.69,6.78h3.38l-1.69-6.78Z" class="cls-1"></path>
        <path d="M132,52.83c-.3-.56-.46-1.19-.46-1.91v-10.22h1.45v10.14c0,.78.19,1.38.57,1.8.38.42.9.63,1.56.63s1.18-.21,1.56-.64.57-1.02.57-1.79v-10.14h1.45v10.22c0,1.1-.33,1.99-.99,2.65-.66.67-1.52,1-2.58,1-.69,0-1.31-.15-1.85-.46-.54-.3-.97-.74-1.27-1.29Z" class="cls-1"></path>
        <path d="M145.12,46.85h4.02v1.31h-4.02v6.26h-1.45v-13.72h6.1v1.29h-4.65v4.85Z" class="cls-1"></path>
        <path d="M161.44,54.42h-1.45v-6.34h-4.22v6.34h-1.45v-13.72h1.45v6.08h4.22v-6.08h1.45v13.72Z" class="cls-1"></path>
        <path d="M167.78,50.92l-.87,3.5h-1.51l3.74-13.72h1.33l3.74,13.72h-1.53l-.87-3.5h-4.02ZM169.79,42.89l-1.69,6.78h3.38l-1.69-6.78Z" class="cls-1"></path>
        <path d="M178.36,52.83c-.3-.56-.46-1.19-.46-1.91v-10.22h1.45v10.14c0,.78.19,1.38.57,1.8.38.42.9.63,1.56.63s1.18-.21,1.56-.64.57-1.02.57-1.79v-10.14h1.45v10.22c0,1.1-.33,1.99-.99,2.65-.66.67-1.52,1-2.59,1-.69,0-1.31-.15-1.85-.46-.54-.3-.97-.74-1.27-1.29Z" class="cls-1"></path>
        <path d="M189.35,50.67h1.41c.04.93.25,1.59.63,2,.38.4.92.61,1.62.61s1.25-.2,1.6-.61c.35-.4.53-1.02.53-1.86,0-.73-.16-1.28-.47-1.65-.31-.37-.87-.72-1.68-1.05l-.8-.32c-.9-.36-1.58-.82-2.03-1.37-.45-.56-.68-1.31-.68-2.25,0-1.11.31-2,.94-2.66.63-.66,1.49-.99,2.59-.99s1.88.31,2.49.92c.61.62.94,1.54.99,2.77h-1.37c-.09-1.6-.8-2.41-2.13-2.41-.69,0-1.21.2-1.55.6-.34.4-.52.96-.52,1.69,0,.65.16,1.16.47,1.53.31.37.84.7,1.6.99l.82.32c.91.36,1.6.83,2.07,1.41s.7,1.4.7,2.45c0,1.21-.31,2.14-.93,2.79-.62.66-1.52.98-2.7.98s-2.05-.33-2.65-.99c-.6-.66-.92-1.63-.94-2.9Z" class="cls-1"></path>
      </g>
    </g>
  </g>
</svg>